<?xml version="1.0" encoding="UTF-8"?>
<svg id="Backgrounds" xmlns="http://www.w3.org/2000/svg" viewBox="0 0 83 20">
  <defs>
    <style>
      .cls-1 {
        fill: #fff;
      }

      .cls-2 {
        fill: none;
        stroke: #fff;
        stroke-linecap: round;
        stroke-linejoin: round;
      }
    </style>
  </defs>
  <g>
    <path class="cls-2" d="m7.11,10.39c-.55-1.1-.66-2.32-.41-3.45.26-1.13.89-2.17,1.85-2.91,1.01-.78,2.23-1.1,3.41-1.02,1.19.08,2.34.55,3.23,1.37.85.77,1.4,1.79,1.61,2.89.21,1.1.08,2.27-.42,3.34-.3.5-.6,1-.9,1.5-.77,1.29-1.16,1.94-1.16,1.94-.67,1.16-1.39,2.28-2.06,3.44-.06.1-.14.18-.23.23s-.2.08-.32.08c-.12,0-.23-.03-.32-.09-.07-.04-.13-.1-.17-.16-.03-.04-.05-.08-.05-.09-.06-.11-.85-1.5-2.02-3.53-.54-.85-.15-1.84.5-2.17.77-.39,1.92.08,2.1.92"/>
    <circle class="cls-2" cx="11.74" cy="6.95" r="1.58"/>
    <path class="cls-2" d="m13.89,11.75c-.77-.39-1.92.08-2.1.92"/>
  </g>
  <g>
    <g>
      <path class="cls-1" d="m27.25,10.43c-.18.33-.46.6-.85.81-.39.21-.88.31-1.49.31h-1.11c-.12,0-.22.1-.22.22v2.53c0,.12-.1.22-.22.22h-.76c-.12,0-.22-.1-.22-.22v-6.9c0-.12.1-.22.22-.22h2.31c.56,0,1.04.1,1.43.29.39.19.68.46.88.79.19.33.29.7.29,1.11,0,.37-.09.73-.26,1.06Zm-1.31-.17c.23-.21.34-.5.34-.88,0-.8-.45-1.2-1.36-1.2h-1.11c-.12,0-.22.1-.22.22v1.95c0,.12.1.22.22.22h1.11c.46,0,.8-.1,1.03-.31Z"/>
      <path class="cls-1" d="m32.56,12.06h-3.99c-.14,0-.25.13-.22.27.07.34.23.63.48.85.31.28.69.42,1.14.42.6,0,1.04-.23,1.31-.7.04-.07.11-.11.19-.11h.84c.16,0,.27.17.2.32-.19.39-.46.73-.83,1-.46.34-1.03.51-1.72.51-.56,0-1.06-.12-1.5-.38-.44-.25-.79-.6-1.04-1.06-.25-.45-.38-.98-.38-1.58s.12-1.13.36-1.58c.24-.45.58-.8,1.03-1.05.44-.25.95-.37,1.52-.37s1.04.12,1.47.36c.43.24.76.58,1,1.01.24.43.36.93.36,1.5,0,.14,0,.27-.02.39s-.11.2-.22.2Zm-1.26-.97c.14,0,.24-.12.22-.26-.05-.33-.21-.6-.45-.81-.31-.27-.69-.4-1.15-.4-.42,0-.77.13-1.07.4-.23.21-.39.47-.48.8-.04.14.07.28.22.28h2.71Z"/>
      <path class="cls-1" d="m34.25,14.25c-.44-.25-.79-.6-1.05-1.06-.25-.45-.38-.98-.38-1.58s.13-1.12.39-1.57c.26-.46.62-.81,1.07-1.06.45-.25.95-.37,1.51-.37s1.06.12,1.51.37c.45.25.81.6,1.07,1.06.26.46.39.98.39,1.57s-.13,1.12-.4,1.57c-.27.46-.63.81-1.09,1.06-.46.25-.97.38-1.53.38s-1.05-.12-1.49-.38Zm2.36-.89c.27-.15.49-.37.66-.67.17-.3.25-.66.25-1.08s-.08-.78-.24-1.07c-.16-.29-.38-.51-.64-.66-.27-.15-.56-.22-.87-.22s-.6.07-.86.22-.47.37-.63.66c-.16.29-.23.65-.23,1.07,0,.63.16,1.11.48,1.45.32.34.72.51,1.21.51.31,0,.6-.07.87-.22Z"/>
      <path class="cls-1" d="m40.8,8.88c.35-.18.75-.27,1.19-.27.51,0,.97.13,1.39.38.42.25.75.6.99,1.05.24.45.36.97.36,1.55s-.12,1.11-.36,1.57c-.24.46-.57.82-.99,1.08-.42.26-.88.39-1.39.39-.44,0-.84-.09-1.18-.27-.18-.09-.34-.2-.48-.31s-.37-.02-.37.17v2.86c0,.12-.1.22-.22.22h-.76c-.12,0-.22-.1-.22-.22v-8.14c0-.12.1-.22.22-.22h.76c.12,0,.22.1.22.22v.09c0,.19.22.29.36.18s.3-.21.47-.31Zm2.46,1.66c-.17-.29-.38-.51-.66-.67-.27-.15-.56-.23-.87-.23s-.59.08-.86.23c-.27.16-.49.38-.66.68-.17.3-.25.64-.25,1.05s.08.75.25,1.05c.17.3.38.53.66.68.27.16.56.23.86.23s.6-.08.87-.24c.27-.16.49-.39.66-.69.17-.3.25-.66.25-1.06s-.08-.75-.25-1.04Z"/>
      <path class="cls-1" d="m45.93,7.42v7.37c0,.12-.1.22-.22.22h-.76c-.12,0-.22-.1-.22-.22v-7.37c0-.12.1-.22.22-.22h.76c.12,0,.22.1.22.22Z"/>
      <path class="cls-1" d="m51.41,12.49h-3.99c-.14,0-.25.13-.22.27.07.34.23.63.48.85.31.28.69.42,1.14.42.6,0,1.04-.23,1.31-.7.04-.07.11-.11.19-.11h.84c.16,0,.27.17.2.32-.19.39-.46.73-.83,1-.46.34-1.03.51-1.72.51-.56,0-1.06-.12-1.5-.38-.44-.25-.79-.6-1.04-1.06-.25-.45-.38-.98-.38-1.58s.12-1.13.36-1.58c.24-.45.58-.8,1.03-1.05.44-.25.95-.37,1.52-.37s1.04.12,1.47.36c.43.24.76.58,1,1.01.24.43.36.93.36,1.5,0,.14,0,.27-.02.39s-.11.2-.22.2Zm-1.26-.97c.14,0,.24-.12.22-.26-.05-.33-.21-.6-.45-.81-.31-.27-.69-.4-1.15-.4-.42,0-.77.13-1.07.4-.23.21-.39.47-.48.8-.04.14.07.28.22.28h2.71Z"/>
    </g>
    <path class="cls-1" d="m59.05,8.34c.59.3,1.04.73,1.36,1.29.32.56.48,1.21.48,1.96s-.16,1.39-.48,1.94c-.32.55-.78.97-1.36,1.26-.59.29-1.27.44-2.06.44h-2.18c-.12,0-.22-.1-.22-.22v-6.9c0-.12.1-.22.22-.22h2.18c.78,0,1.47.15,2.06.45Zm-.08,5.22c.46-.47.69-1.12.69-1.97s-.23-1.52-.69-2c-.46-.48-1.12-.72-1.98-.72h-.97c-.12,0-.22.1-.22.22v4.93c0,.12.1.22.22.22h.97c.86,0,1.52-.23,1.98-.7Z"/>
    <path class="cls-1" d="m62.87,9.49c.23-.13.5-.21.8-.24.13-.01.24.09.24.22v.79c0,.12-.1.22-.22.22h-.08c-.47,0-.83.12-1.07.36-.24.24-.36.66-.36,1.25v2.84c0,.12-.1.22-.22.22h-.76c-.12,0-.22-.1-.22-.22v-5.38c0-.12.1-.22.22-.22h.76c.12,0,.22.1.22.22h0c0,.2.23.29.38.16.1-.09.21-.17.33-.23Z"/>
    <path class="cls-1" d="m64.79,14.88c-.44-.25-.79-.6-1.05-1.06-.25-.45-.38-.98-.38-1.58s.13-1.12.39-1.57c.26-.46.62-.81,1.07-1.06.45-.25.95-.37,1.51-.37s1.06.12,1.51.37c.45.25.81.6,1.07,1.06.26.46.39.98.39,1.57s-.13,1.12-.4,1.57c-.27.46-.63.81-1.09,1.06-.46.25-.97.38-1.53.38s-1.05-.12-1.49-.38Zm2.36-.89c.27-.15.49-.37.66-.67.17-.3.25-.66.25-1.08s-.08-.78-.24-1.07c-.16-.29-.38-.51-.64-.66-.27-.15-.56-.22-.87-.22s-.6.07-.86.22-.47.37-.63.66c-.16.29-.23.65-.23,1.07,0,.63.16,1.11.48,1.45.32.34.72.51,1.21.51.31,0,.6-.07.87-.22Z"/>
    <path class="cls-1" d="m71.33,9.59c.35-.18.75-.27,1.19-.27.51,0,.97.13,1.39.38.42.25.75.6.99,1.05.24.45.36.97.36,1.55s-.12,1.11-.36,1.57c-.24.46-.57.82-.99,1.08-.42.26-.88.39-1.39.39-.44,0-.84-.09-1.18-.27-.18-.09-.34-.2-.48-.31s-.37-.02-.37.17v2.86c0,.12-.1.22-.22.22h-.76c-.12,0-.22-.1-.22-.22v-8.14c0-.12.1-.22.22-.22h.76c.12,0,.22.1.22.22v.09c0,.19.22.29.36.18s.3-.21.47-.31Zm2.46,1.66c-.17-.29-.38-.51-.66-.67-.27-.15-.56-.23-.87-.23s-.59.08-.86.23c-.27.16-.49.38-.66.68-.17.3-.25.64-.25,1.05s.08.75.25,1.05c.17.3.38.53.66.68.27.16.56.23.86.23s.6-.08.87-.24c.27-.16.49-.39.66-.69.17-.3.25-.66.25-1.06s-.08-.75-.25-1.04Z"/>
  </g>
</svg>